<?xml version="1.0" encoding="UTF-8" standalone="no"?>
<!-- Created with Inkscape (http://www.inkscape.org/) -->

<svg
   xmlns:dc="http://purl.org/dc/elements/1.1/"
   xmlns:cc="http://creativecommons.org/ns#"
   xmlns:rdf="http://www.w3.org/1999/02/22-rdf-syntax-ns#"
   xmlns:svg="http://www.w3.org/2000/svg"
   xmlns="http://www.w3.org/2000/svg"
   xmlns:sodipodi="http://sodipodi.sourceforge.net/DTD/sodipodi-0.dtd"
   xmlns:inkscape="http://www.inkscape.org/namespaces/inkscape"
   id="svg2985"
   version="1.1"
   inkscape:version="0.48.4 r9939"
   width="616.88727"
   height="72.221375"
   xml:space="preserve"
   sodipodi:docname="RapidRide_logo.svg"><metadata
     id="metadata2991"><rdf:RDF><cc:Work
         rdf:about=""><dc:format>image/svg+xml</dc:format><dc:type
           rdf:resource="http://purl.org/dc/dcmitype/StillImage" /><dc:title></dc:title></cc:Work></rdf:RDF></metadata><defs
     id="defs2989"><clipPath
       clipPathUnits="userSpaceOnUse"
       id="clipPath3009"><path
         d="m 0,2754 1332,0 L 1332,0 0,0 0,2754 z"
         id="path3011"
         inkscape:connector-curvature="0" /></clipPath><clipPath
       clipPathUnits="userSpaceOnUse"
       id="clipPath3025"><path
         d="m 0,2754 1332,0 L 1332,0 0,0 0,2754 z"
         id="path3027"
         inkscape:connector-curvature="0" /></clipPath><clipPath
       clipPathUnits="userSpaceOnUse"
       id="clipPath3045"><path
         d="m 0,2754 1332,0 L 1332,0 0,0 0,2754 z"
         id="path3047"
         inkscape:connector-curvature="0" /></clipPath><clipPath
       clipPathUnits="userSpaceOnUse"
       id="clipPath3065"><path
         d="m 0,2754 1332,0 L 1332,0 0,0 0,2754 z"
         id="path3067"
         inkscape:connector-curvature="0" /></clipPath><clipPath
       clipPathUnits="userSpaceOnUse"
       id="clipPath3089"><path
         d="m 0,2754 1332,0 L 1332,0 0,0 0,2754 z"
         id="path3091"
         inkscape:connector-curvature="0" /></clipPath><clipPath
       clipPathUnits="userSpaceOnUse"
       id="clipPath3103"><path
         d="m 0,2754 1332,0 L 1332,0 0,0 0,2754 z"
         id="path3105"
         inkscape:connector-curvature="0" /></clipPath><clipPath
       clipPathUnits="userSpaceOnUse"
       id="clipPath3123"><path
         d="m 0,2754 1332,0 L 1332,0 0,0 0,2754 z"
         id="path3125"
         inkscape:connector-curvature="0" /></clipPath><clipPath
       clipPathUnits="userSpaceOnUse"
       id="clipPath3151"><path
         d="m 0,2754 1332,0 L 1332,0 0,0 0,2754 z"
         id="path3153"
         inkscape:connector-curvature="0" /></clipPath><clipPath
       clipPathUnits="userSpaceOnUse"
       id="clipPath3547"><path
         d="m 0,2754 1332,0 L 1332,0 0,0 0,2754 z"
         id="path3549"
         inkscape:connector-curvature="0" /></clipPath><clipPath
       clipPathUnits="userSpaceOnUse"
       id="clipPath3571"><path
         d="m 712.998,1868.252 50.361,0 0,52.217 -50.361,0 0,-52.217 z"
         id="path3573"
         inkscape:connector-curvature="0" /></clipPath><clipPath
       clipPathUnits="userSpaceOnUse"
       id="clipPath3591"><path
         d="m 0,2754 1332,0 L 1332,0 0,0 0,2754 z"
         id="path3593"
         inkscape:connector-curvature="0" /></clipPath><clipPath
       clipPathUnits="userSpaceOnUse"
       id="clipPath3603"><path
         d="m 492,183.443 50.36,0 0,52.217 -50.36,0 0,-52.217 z"
         id="path3605"
         inkscape:connector-curvature="0" /></clipPath><clipPath
       clipPathUnits="userSpaceOnUse"
       id="clipPath3623"><path
         d="m 0,2754 1332,0 L 1332,0 0,0 0,2754 z"
         id="path3625"
         inkscape:connector-curvature="0" /></clipPath><clipPath
       clipPathUnits="userSpaceOnUse"
       id="clipPath3675"><path
         d="m 1039,2069.621 50.361,0 0,52.218 -50.361,0 0,-52.218 z"
         id="path3677"
         inkscape:connector-curvature="0" /></clipPath><clipPath
       clipPathUnits="userSpaceOnUse"
       id="clipPath3695"><path
         d="m 0,2754 1332,0 L 1332,0 0,0 0,2754 z"
         id="path3697"
         inkscape:connector-curvature="0" /></clipPath><clipPath
       clipPathUnits="userSpaceOnUse"
       id="clipPath3771"><path
         d="m 0,2754 1332,0 L 1332,0 0,0 0,2754 z"
         id="path3773"
         inkscape:connector-curvature="0" /></clipPath><clipPath
       clipPathUnits="userSpaceOnUse"
       id="clipPath4891"><path
         d="m 0,2754 1332,0 L 1332,0 0,0 0,2754 z"
         id="path4893"
         inkscape:connector-curvature="0" /></clipPath><clipPath
       clipPathUnits="userSpaceOnUse"
       id="clipPath5225"><path
         d="m 0,2754 1332,0 L 1332,0 0,0 0,2754 z"
         id="path5227"
         inkscape:connector-curvature="0" /></clipPath><clipPath
       clipPathUnits="userSpaceOnUse"
       id="clipPath5591"><path
         d="m 0,2754 1332,0 L 1332,0 0,0 0,2754 z"
         id="path5593"
         inkscape:connector-curvature="0" /></clipPath><clipPath
       clipPathUnits="userSpaceOnUse"
       id="clipPath6857"><path
         d="m 0,2754 1332,0 L 1332,0 0,0 0,2754 z"
         id="path6859"
         inkscape:connector-curvature="0" /></clipPath></defs><sodipodi:namedview
     pagecolor="#ffffff"
     bordercolor="#666666"
     borderopacity="1"
     objecttolerance="10"
     gridtolerance="10"
     guidetolerance="10"
     inkscape:pageopacity="0"
     inkscape:pageshadow="2"
     inkscape:window-width="1173"
     inkscape:window-height="1001"
     id="namedview2987"
     showgrid="false"
     fit-margin-top="0"
     fit-margin-left="0"
     fit-margin-right="0"
     fit-margin-bottom="0"
     inkscape:zoom="0.81445313"
     inkscape:cx="252.81807"
     inkscape:cy="-6.5608773"
     inkscape:window-x="731"
     inkscape:window-y="0"
     inkscape:window-maximized="0"
     inkscape:current-layer="g2993" /><g
     id="g2993"
     inkscape:groupmode="layer"
     inkscape:label="RapidRide"
     transform="matrix(1.25,0,0,-1.25,-230.38889,3180.3216)"
     style="display:inline"><g
       id="g6853"
       transform="translate(9.7047103,-5.8245169)"
       style="fill:#b50938;fill-opacity:1"><g
         id="g6855"
         clip-path="url(#clipPath6857)"
         style="fill:#b50938;fill-opacity:1"><g
           id="g6861"
           transform="translate(850.3857,2531.2192)"
           style="fill:#b50938;fill-opacity:1" /><g
           id="g6865"
           transform="translate(901.9268,2578.8662)"
           style="fill:#b50938;fill-opacity:1" /><g
           id="g6869"
           transform="translate(993.0527,2569.4019)"
           style="fill:#b50938;fill-opacity:1" /><g
           id="g6875"
           transform="translate(1125.7793,2531.8164)"
           style="fill:#b50938;fill-opacity:1" /><g
           id="g6879"
           transform="translate(1186.2813,2516.2285)"
           style="fill:#b50938;fill-opacity:1" /><g
           id="g6883"
           transform="translate(174.6064,2492.3965)"
           style="fill:#b50938;fill-opacity:1"><path
             d="m 0,0 0,57.26 49.052,0 c 8.581,0 12.873,-3.699 12.873,-11.098 l 0,-13.427 c 0,-7.396 -4.292,-11.097 -12.873,-11.097 l -7.55,0 L 67.913,0 48.827,0 25.746,21.638 13.097,21.638 13.097,0 0,0 z m 43.06,47.382 -29.963,0 0,-15.981 29.963,0 c 2.071,0 3.514,0.225 4.326,0.668 1.107,0.666 1.666,1.959 1.666,3.882 l 0,6.879 c 0,1.926 -0.559,3.22 -1.666,3.888 -0.812,0.443 -2.255,0.664 -4.326,0.664"
             style="fill:#b50938;fill-opacity:1;fill-rule:evenodd;stroke:none"
             id="path6885"
             inkscape:connector-curvature="0" /></g><g
           id="g6887"
           transform="translate(309.9888,2492.3047)"
           style="fill:#b50938;fill-opacity:1"><path
             d="m 0,0 -13.721,0 -5.334,9.363 -27.171,0 -5.337,-9.363 -12.398,0 26.295,44.315 10.951,0 0.253,-0.422 L 0,0 z m -40.848,18.85 16.58,0 -8.461,15.043 -8.119,-15.043 z"
             style="fill:#b50938;fill-opacity:1;fill-rule:nonzero;stroke:none"
             id="path6889"
             inkscape:connector-curvature="0" /></g><g
           id="g6891"
           transform="translate(325.853,2492.3047)"
           style="fill:#b50938;fill-opacity:1"><path
             d="m 0,0 -12.007,0 0,44.315 39.217,0 c 3.728,0 6.378,-0.688 8.096,-2.105 1.82,-1.44 2.74,-3.802 2.74,-7.019 l 0,-9.459 c 0,-3.012 -0.944,-5.319 -2.806,-6.862 -1.814,-1.502 -4.516,-2.264 -8.03,-2.264 L 0,16.606 0,0 z m 0,25.695 22.784,0 c 3.422,0 3.859,1.366 3.859,2.551 l 0,4.431 c 0,1.189 -0.437,2.551 -3.859,2.551 L 0,35.228 0,25.695 z"
             style="fill:#b50938;fill-opacity:1;fill-rule:nonzero;stroke:none"
             id="path6893"
             inkscape:connector-curvature="0" /></g><path
           d="m 373.902,2492.305 12.106,0 0,44.315 -12.106,0 0,-44.315 z"
           style="fill:#b50938;fill-opacity:1;fill-rule:nonzero;stroke:none"
           id="path6895"
           inkscape:connector-curvature="0" /><g
           id="g6897"
           transform="translate(423.9521,2492.3047)"
           style="fill:#b50938;fill-opacity:1"><path
             d="m 0,0 -26.938,0 0,44.315 29.556,0 c 8.496,0 15.086,-1.931 19.585,-5.74 4.547,-3.845 6.849,-9.32 6.849,-16.266 C 29.052,7.504 19.279,0 0,0 m -14.729,9.693 12.514,0 c 6.705,0 11.524,0.902 14.325,2.68 3.051,1.992 4.534,5.408 4.534,10.44 0,8.15 -4.554,12.113 -13.927,12.113 l -17.446,0 0,-25.233 z"
             style="fill:#b50938;fill-opacity:1;fill-rule:nonzero;stroke:none"
             id="path6899"
             inkscape:connector-curvature="0" /></g><g
           id="g6901"
           transform="translate(461.2837,2492.8218)"
           style="fill:#b50938;fill-opacity:1"><path
             d="m 0,0 0,57.26 49.048,0 c 8.585,0 12.874,-3.697 12.874,-11.097 l 0,-13.427 c 0,-7.397 -4.289,-11.094 -12.874,-11.094 l -7.546,0 L 67.913,0 48.828,0 25.746,21.642 l -12.65,0 L 13.096,0 0,0 z m 43.057,47.381 -29.961,0 0,-15.979 29.961,0 c 2.074,0 3.517,0.227 4.327,0.668 1.109,0.666 1.664,1.959 1.664,3.884 l 0,6.879 c 0,1.925 -0.555,3.22 -1.664,3.888 -0.81,0.441 -2.253,0.66 -4.327,0.66"
             style="fill:#b50938;fill-opacity:1;fill-rule:evenodd;stroke:none"
             id="path6903"
             inkscape:connector-curvature="0" /></g><path
           d="m 535.4,2492.813 12.107,0 0,44.313 -12.107,0 0,-44.313 z"
           style="fill:#b50938;fill-opacity:1;fill-rule:nonzero;stroke:none"
           id="path6905"
           inkscape:connector-curvature="0" /><g
           id="g6907"
           transform="translate(585.4531,2492.8135)"
           style="fill:#b50938;fill-opacity:1"><path
             d="m 0,0 -26.939,0 0,44.313 29.555,0 c 8.494,0 15.083,-1.93 19.587,-5.743 4.542,-3.841 6.849,-9.314 6.849,-16.263 C 29.052,7.503 19.277,0 0,0 m -14.73,9.691 12.514,0 c 6.707,0 11.525,0.902 14.325,2.679 3.052,1.996 4.534,5.409 4.534,10.438 0,8.153 -4.555,12.113 -13.927,12.113 l -17.446,0 0,-25.23 z"
             style="fill:#b50938;fill-opacity:1;fill-rule:nonzero;stroke:none"
             id="path6909"
             inkscape:connector-curvature="0" /></g><g
           id="g6911"
           transform="translate(668.1162,2492.8135)"
           style="fill:#b50938;fill-opacity:1"><path
             d="m 0,0 -47.94,0 0,44.313 47.436,0 0,-9.289 -35.227,0 0,-7.519 20.53,0 0,-9.085 -20.53,0 0,-8.729 L 0,9.691 0,0 z"
             style="fill:#b50938;fill-opacity:1;fill-rule:nonzero;stroke:none"
             id="path6913"
             inkscape:connector-curvature="0" /></g><g
           id="g6917"
           transform="translate(144.9961,2630.7183)"
           style="fill:#b50938;fill-opacity:1" /><g
           id="g6921"
           transform="translate(144.9961,2630.7183)"
           style="fill:#b50938;fill-opacity:1" /><g
           id="g6925"
           transform="translate(161.7241,2627.5098)"
           style="fill:#b50938;fill-opacity:1" /><g
           id="g6929"
           transform="translate(161.3955,2624.3857)"
           style="fill:#b50938;fill-opacity:1" /><g
           id="g6933"
           transform="translate(159.998,2618.8555)"
           style="fill:#b50938;fill-opacity:1" /><g
           id="g6937"
           transform="translate(156.165,2613.4316)"
           style="fill:#b50938;fill-opacity:1" /><g
           id="g6941"
           transform="translate(152.168,2626.3647)"
           style="fill:#b50938;fill-opacity:1" /><g
           id="g6945"
           transform="translate(154.9092,2617.3838)"
           style="fill:#b50938;fill-opacity:1" /><g
           id="g6949"
           transform="translate(176.4121,2623.8726)"
           style="fill:#b50938;fill-opacity:1" /><g
           id="g6953"
           transform="translate(190.5972,2624.1953)"
           style="fill:#b50938;fill-opacity:1" /><g
           id="g6957"
           transform="translate(190.5972,2624.1953)"
           style="fill:#b50938;fill-opacity:1" /><g
           id="g6963"
           transform="translate(193.3652,2619.8545)"
           style="fill:#b50938;fill-opacity:1" /><g
           id="g6967"
           transform="translate(212.3564,2611.8315)"
           style="fill:#b50938;fill-opacity:1" /><g
           id="g6971"
           transform="translate(207.6909,2613.3687)"
           style="fill:#b50938;fill-opacity:1" /><g
           id="g6975"
           transform="translate(225.1611,2620.5698)"
           style="fill:#b50938;fill-opacity:1" /><g
           id="g6979"
           transform="translate(232.5977,2620.1025)"
           style="fill:#b50938;fill-opacity:1" /><g
           id="g6983"
           transform="translate(232.5977,2613.2627)"
           style="fill:#b50938;fill-opacity:1" /><g
           id="g6987"
           transform="translate(246.7417,2611.0898)"
           style="fill:#b50938;fill-opacity:1" /><g
           id="g6991"
           transform="translate(248.1582,2619.8755)"
           style="fill:#b50938;fill-opacity:1" /><g
           id="g6995"
           transform="translate(263.9854,2617.8193)"
           style="fill:#b50938;fill-opacity:1" /><g
           id="g6999"
           transform="translate(270.79,2609.7344)"
           style="fill:#b50938;fill-opacity:1" /><g
           id="g7003"
           transform="translate(189.3179,2592.6353)"
           style="fill:#b50938;fill-opacity:1" /><g
           id="g7007"
           transform="translate(222.2515,2581.7744)"
           style="fill:#b50938;fill-opacity:1" /><g
           id="g7011"
           transform="translate(247.4331,2601.6758)"
           style="fill:#b50938;fill-opacity:1" /><g
           id="g7015"
           transform="translate(255.7881,2597.208)"
           style="fill:#b50938;fill-opacity:1" /><g
           id="g7019"
           transform="translate(291.291,2589.4902)"
           style="fill:#b50938;fill-opacity:1" /></g></g></g></svg>